<svg height="511pt" viewBox="0 -34 511.99945 511" width="511pt" xmlns="http://www.w3.org/2000/svg"><path d="m38.183594 224.203125h13.128906c-18.019531 3.417969-31.585938 19.832031-30.476562 39.035156 1.15625 19.957031 18.1875 35.308594 38.179687 35.308594h111.234375c13.503906 0 23.074219 13.171875 18.90625 26.015625l-15.949219 43.449219c-1.101562 3-1.957031 6.089843-2.546875 9.230469-3.460937 18.472656 2.875 37.816406 16.351563 50.867187 6.699219 6.484375 14.984375 11.261719 23.972656 13.75 7.023437 1.945313 20.605469 3.957031 24.953125-4.347656 9.886719-18.878907 19.769531-37.761719 29.652344-56.640625 19.730468-37.695313 37.617187-72.945313 78.671875-93.410156l27.839843-13.878907v-240.3125l-8.972656-4.171875c-40.492187-18.839844-84.613281-28.597656-129.269531-28.597656h-151.953125c-19.992188 0-37.027344 15.351562-38.183594 35.308594-1.109375 19.207031 12.460938 35.617187 30.480469 39.039062h-22.085937c-19.992188 0-37.023438 15.351563-38.179688 35.308594-1.109375 19.203125 12.457031 35.617188 30.476562 39.035156h-6.910156c-21.488281 0-38.910156 18.320313-37.4140622 40.109375 1.3554682 19.78125 18.2695312 34.902344 38.0937502 34.902344zm0 0" fill="#ffcebf"/><path d="m37.496094 149.199219h6.921875c-18.023438-3.421875-31.59375-19.84375-30.476563-39.046875 1.144532-19.957032 18.1875-35.308594 38.171875-35.308594h22.089844c-18.023437-3.421875-31.59375-19.828125-30.472656-39.035156 1.144531-19.957032 18.1875-35.308594 38.167969-35.308594h44.414062c-19.980469 0-37.023438 15.351562-38.167969 35.308594-1.117187 19.207031 12.453125 35.613281 30.476563 39.035156h-22.09375c-19.980469 0-37.023438 15.351562-38.167969 35.308594-1.121094 19.203125 12.449219 35.625 30.472656 39.046875h-6.90625c-21.496093 0-38.921875 18.316406-37.417969 40.101562 1.347657 19.777344 18.261719 34.902344 38.09375 34.902344h13.125c-18.011718 3.421875-31.582031 19.828125-30.476562 39.035156 1.160156 19.957031 18.1875 35.308594 38.183594 35.308594h-44.414063c-19.996093 0-37.027343-15.351563-38.183593-35.308594-1.109376-19.207031 12.464843-35.613281 30.472656-39.035156h-13.125c-19.828125 0-36.746094-15.125-38.0937502-34.902344-1.4999998-21.785156 15.9257812-40.101562 37.4062502-40.101562zm0 0" fill="#ffbfab"/><path d="m384.585938.5h114.929687c6.867187 0 12.484375 5.617188 12.484375 12.484375v273.082031c0 6.863282-5.617188 12.480469-12.484375 12.480469h-114.929687c-6.867188 0-12.484376-5.617187-12.484376-12.480469v-273.082031c0-6.867187 5.617188-12.484375 12.484376-12.484375zm0 0" fill="#ffc143"/><path d="m512 286.074219v-273.085938c0-6.878906-5.628906-12.472656-12.503906-12.472656h-45.832032c6.84375 0 12.472657 5.59375 12.472657 12.472656v273.085938c0 6.84375-5.628907 12.472656-12.472657 12.472656h45.832032c6.875 0 12.503906-5.628906 12.503906-12.472656zm0 0" fill="#ffb509"/><g fill="#ffbfab"><path d="m63.570312 217.628906h108.289063c4.417969 0 7.996094 3.578125 7.996094 7.996094 0 4.414062-3.578125 7.996094-7.996094 7.996094h-108.289063c-4.414062 0-7.996093-3.582032-7.996093-7.996094 0-4.417969 3.582031-7.996094 7.996093-7.996094zm0 0"/><path d="m87.09375 60.429688h84.765625c4.417969 0 7.996094 3.578124 7.996094 7.996093 0 4.414063-3.578125 7.996094-7.996094 7.996094h-84.765625c-4.414062 0-7.996094-3.582031-7.996094-7.996094 0-4.417969 3.582032-7.996093 7.996094-7.996093zm0 0"/><path d="m56.480469 140.875h115.378906c4.417969 0 7.996094 3.578125 7.996094 7.996094 0 4.414062-3.578125 7.996094-7.996094 7.996094h-115.378906c-4.414063 0-7.996094-3.582032-7.996094-7.996094 0-4.417969 3.582031-7.996094 7.996094-7.996094zm0 0"/></g></svg>