<svg id="Capa_1" enable-background="new 0 0 511.998 511.998" height="512" viewBox="0 0 511.998 511.998" width="512" xmlns="http://www.w3.org/2000/svg" xmlns:xlink="http://www.w3.org/1999/xlink"><linearGradient id="SVGID_1_" gradientUnits="userSpaceOnUse" x1="376.998" x2="376.998" y1="255.599" y2="15.599"><stop offset="0" stop-color="#ffc2cc"/><stop offset="1" stop-color="#fff2f4"/></linearGradient><linearGradient id="SVGID_2_" gradientUnits="userSpaceOnUse" x1="255.999" x2="255.999" y1="511.398" y2=".599"><stop offset="0" stop-color="#fd3a84"/><stop offset="1" stop-color="#ffa68d"/></linearGradient><g><g><g><circle cx="376.998" cy="135.599" fill="url(#SVGID_1_)" r="120"/></g></g><g><g><path d="m407.643 388.245-76.377-50.933c-17.739-11.792-41.646-9.478-56.763 5.64l-20.098 20.083c-11.792-1.699-39.829-8.716-68.584-37.471s-35.771-56.792-37.471-68.584l20.083-20.098c15.103-15.103 17.476-38.979 5.625-56.777l-50.918-76.362c-7.515-11.265-19.541-18.486-33.018-19.819-13.491-1.304-26.675 3.398-36.24 12.964l-31.831 31.816c-15.16 15.161-23.158 35.874-21.927 56.836 2.402 40.811 20.083 122.915 111.445 214.277 91.377 91.362 173.467 109.043 214.277 111.445 20.525 1.283 41.482-6.558 56.821-21.929l31.831-31.831c9.565-9.565 14.297-22.778 12.964-36.24-1.332-13.476-8.554-25.502-19.819-33.017zm-30.645-387.646c-74.031 0-135 60.296-135 135 0 74.443 60.557 135 135 135 74.351 0 135-60.648 135-135 0-74.443-60.557-135-135-135zm0 240c-57.891 0-105-47.109-105-105 0-23.54 8.069-45.066 21.205-62.598l146.393 146.393c-17.532 13.136-39.058 21.205-62.598 21.205zm83.807-42.418-146.389-146.389c17.531-13.129 39.049-21.193 62.582-21.193 57.891 0 105 47.109 105 105 0 23.533-8.064 45.052-21.193 62.582z" fill="url(#SVGID_2_)"/></g></g></g></svg>